<?xml version="1.0" encoding="UTF-8" standalone="no"?>
<!-- Generator: Adobe Illustrator 22.0.1, SVG Export Plug-In . SVG Version: 6.00 Build 0)  -->

<svg
   version="1.1"
   id="Ebene_1"
   x="0px"
   y="0px"
   viewBox="0 0 1114.9254 318.87088"
   xml:space="preserve"
   width="294.99066mm"
   height="84.367928mm"
   xmlns="http://www.w3.org/2000/svg"
   xmlns:svg="http://www.w3.org/2000/svg"><defs
   id="defs222" />
<style
   type="text/css"
   id="style203">
	.st0{fill-rule:evenodd;clip-rule:evenodd;fill:#E7452A;}
	.st1{fill:#E7452A;}
	.st2{fill:#AFAFAA;}
</style>
<path
   class="st0"
   d="m 217.82027,160.55824 c 0,-42.66583 -6.73671,-89.82279 -31.43798,-119.0152 C 161.68103,13.47342 130.24305,7.85949 88.700007,7.85949 H 0 v 307.64306 h 88.700007 c 41.543043,0 72.981023,-5.61392 97.682283,-33.68354 24.70127,-31.43798 31.43798,-78.59495 31.43798,-121.26077 z m -56.13924,0 c 0,28.06962 -4.49114,69.61266 -16.84178,85.33165 -10.10506,12.35063 -19.08734,17.96456 -55.016458,17.96456 H 56.139245 c 0,0 0,0 0,-1.12279 1.122785,-1.12278 2.24557,-33.68354 2.24557,-101.05064 0,-67.36709 -2.24557,-99.92785 -2.24557,-101.05064 0,-1.12278 0,-1.12278 0,-1.12278 h 33.683547 c 34.806328,0 43.788608,5.61392 55.016458,17.96456 12.35064,13.47341 16.84178,55.01646 16.84178,83.08608 z"
   id="path205"
   style="stroke-width:11.2278" /><path
   class="st1"
   d="m 465.95573,225.67976 c 0,-43.78861 -24.70126,-80.84051 -92.06836,-93.19114 l -30.31519,-5.61393 c -20.21013,-3.36835 -37.0519,-14.5962 -37.0519,-40.42026 0,-13.47341 6.73671,-21.33291 12.35063,-25.82405 7.8595,-6.73671 19.08735,-11.22785 33.68355,-11.22785 14.5962,0 28.06962,5.61393 37.0519,14.59621 5.61393,5.61392 10.10506,15.71899 10.10506,28.06962 0,0 8.98228,5.61392 28.06963,5.61392 17.96456,0 26.94683,-5.61392 26.94683,-5.61392 0,-22.4557 -6.7367,-43.78861 -24.70126,-62.87595 C 414.30763,12.35063 386.23801,0 351.43167,0 316.62534,0 289.6785,12.35063 273.95952,26.94684 c -15.71899,14.5962 -24.70127,38.17468 -24.70127,62.87595 0,52.77089 38.17468,81.9633 84.20887,89.82279 l 31.43797,5.61393 c 28.06963,5.61392 41.54304,22.45569 41.54304,40.42025 0,13.47342 -3.36835,22.4557 -11.22784,31.43798 -7.8595,7.85949 -21.33292,12.35063 -41.54305,12.35063 -16.84177,0 -34.80633,-6.73671 -41.54304,-15.71898 -7.85949,-10.10507 -10.10506,-21.33292 -10.10506,-35.92912 0,0 -8.98228,-5.61393 -29.19241,-5.61393 -19.08734,0 -28.06962,5.61393 -28.06962,5.61393 0,31.43798 7.85949,52.77089 24.70127,71.85823 19.08734,21.33292 50.52532,29.19241 83.08608,29.19241 38.17469,0 66.24431,-6.73671 85.33165,-25.82405 17.96456,-15.71899 28.06962,-39.29747 28.06962,-67.3671 z"
   id="path207"
   style="stroke-width:11.2278" /><path
   class="st1"
   d="m 793.80892,11.22785 c 0,0 -8.98227,-5.61393 -26.94683,-5.61393 -19.08735,0 -29.19241,5.61393 -29.19241,5.61393 l -14.5962,111.1557 c -11.22785,84.20887 -11.22785,101.05064 -11.22785,117.89242 0,0 0,0 -1.12279,0 -1.12278,0 -1.12278,0 -1.12278,0 0,-10.10507 -8.98228,-61.75317 -21.33292,-120.13799 L 663.56588,14.5962 c 0,0 -8.98228,-5.61392 -25.82406,-5.61392 -16.84177,0 -25.82405,5.61392 -25.82405,5.61392 L 587.2165,120.13798 c -12.35063,58.38482 -21.33291,110.03292 -21.33291,120.13799 0,0 0,0 -1.12279,0 -1.12278,0 -1.12278,0 -1.12278,0 0,-16.84178 0,-33.68355 -11.22785,-117.89242 l -14.5962,-111.1557 c 0,0 -11.22785,-5.61393 -29.19241,-5.61393 -17.96456,0 -26.94684,5.61393 -26.94684,5.61393 l 49.40254,300.90635 c 0,0 11.22785,5.61392 29.19241,5.61392 19.08734,0 29.1924,-5.61392 29.1924,-5.61392 l 31.43798,-135.85697 c 8.98228,-35.92912 14.5962,-80.84052 14.5962,-93.19115 0,0 0,0 1.12279,0 1.12278,0 1.12278,0 1.12278,0 0,12.35063 6.73671,57.26203 14.59621,93.19115 L 683.776,312.1342 c 0,0 11.22785,5.61392 29.19241,5.61392 19.08735,0 29.19241,-5.61392 29.19241,-5.61392 z"
   id="path209"
   style="stroke-width:11.2278" /><path
   class="st2"
   d="m 1014.9976,314.37977 c 0,0 5.6139,-7.85949 5.6139,-24.70127 0,-16.84177 -5.6139,-24.70127 -5.6139,-24.70127 H 899.35071 c 0,0 0,0 0,-1.12278 4.49113,-3.36836 19.08734,-21.33291 43.78861,-50.52532 l 39.29747,-48.27975 c 22.45571,-28.06962 32.56081,-50.52532 32.56081,-77.47216 0,-52.77089 -41.54309,-85.33165 -93.1912,-85.33165 -61.75317,0 -95.43671,38.17468 -96.5595,90.94557 0,0 8.98228,5.61393 26.94684,5.61393 19.08734,0 28.06962,-5.61393 28.06962,-5.61393 0,-23.57848 14.59621,-43.78861 40.42026,-43.78861 24.70127,0 38.17468,16.84178 38.17468,38.17469 0,14.5962 -3.36835,25.82405 -25.82405,52.77089 L 827.49247,270.59116 v 43.78861 z"
   id="path211"
   style="stroke-width:11.2278" /><path
   class="st2"
   d="M 1114.9254,314.37977 V 10.10506 c 0,0 -8.9823,-5.61392 -26.9468,-5.61392 -17.9646,0 -26.9469,5.61392 -26.9469,5.61392 v 304.27471 z"
   id="path213"
   style="stroke-width:11.2278" />

</svg>
